<?xml version="1.0" encoding="utf-8"?>
<svg version="1.1"
    xmlns="http://www.w3.org/2000/svg"
    xmlns:xlink="http://www.w3.org/1999/xlink" x="0px" y="0px" viewBox="0 0 24 24" style="enable-background:new 0 0 24 24;" xml:space="preserve">
    <g>
        <path d="M6.1547852,15.5546875V5.5449219h2.2822266v10.0097656H6.1547852z"/>
        <path d="M13.6591797,15.5546875V7.3085938H10.956543V5.5449219h7.6870117v1.7636719h-2.7021484v8.2460938H13.6591797z"/>
    </g>
    <path d="M22,2v20H2V2H22z M24,0H0v24h24V0z"/>
    <g>
        <path d="M3.9726563,21.1445313c-0.331543,0-0.5820313-0.0722656-0.7524414-0.2167969s-0.2636719-0.3466797-0.2802734-0.6054688
		h0.5424805c0.0141602,0.1289063,0.0566406,0.2285156,0.1279297,0.3007813s0.1918945,0.109375,0.3623047,0.109375
		c0.1235352,0,0.2231445-0.03125,0.2993164-0.0927734c0.0756836-0.0625,0.1137695-0.1425781,0.1137695-0.2402344
		c0-0.1005859-0.0327148-0.1728516-0.0981445-0.2167969c-0.0654297-0.0449219-0.1899414-0.0810547-0.3745117-0.1083984
		c-0.3266602-0.0419922-0.5585938-0.1201172-0.6962891-0.2333984c-0.1376953-0.1123047-0.206543-0.2880859-0.206543-0.5263672
		c0-0.2167969,0.0834961-0.3955078,0.25-0.5351563c0.1669922-0.140625,0.3867188-0.2099609,0.659668-0.2099609
		c0.2827148,0,0.503418,0.0625,0.6635742,0.1884766c0.159668,0.1259766,0.2514648,0.3125,0.2744141,0.5605469H4.3364258
		c-0.034668-0.2216797-0.1738281-0.3330078-0.4165039-0.3330078c-0.1210938,0-0.2138672,0.0253906-0.277832,0.0771484
		c-0.0644531,0.0517578-0.0966797,0.1201172-0.0966797,0.2060547c0,0.09375,0.03125,0.1630859,0.0927734,0.2089844
		c0.0620117,0.0449219,0.1860352,0.0820313,0.3730469,0.1103516c0.3217773,0.0419922,0.5551758,0.1171875,0.699707,0.2255859
		c0.1450195,0.1083984,0.2172852,0.2861328,0.2172852,0.5332031c0,0.2285156-0.0869141,0.4189453-0.2607422,0.5703125
		C4.4936523,21.0693359,4.2617188,21.1445313,3.9726563,21.1445313z"/>
        <path d="M5.5126953,21.1064453v-2.5029297h1.6308594v0.4414063H6.0761719v0.5849609h0.8540039v0.4121094H6.0761719v0.6230469
		H7.199707v0.4414063H5.5126953z"/>
        <path d="M7.7700195,21.1064453v-2.5029297h0.8959961c0.3032227,0,0.5400391,0.0644531,0.7104492,0.1914063
		s0.2553711,0.3164063,0.2553711,0.5683594v0.0146484c0,0.3398438-0.1713867,0.5615234-0.5141602,0.6640625l0.6611328,1.0644531
		H9.1767578L8.5786133,20.140625H8.3334961v0.9658203H7.7700195z M8.3334961,19.7558594h0.3183594
		c0.284668,0,0.4272461-0.1201172,0.4272461-0.3613281v-0.0136719c0-0.1240234-0.0356445-0.2119141-0.1069336-0.2646484
		c-0.0712891-0.0517578-0.1777344-0.078125-0.3203125-0.078125H8.3334961V19.7558594z"/>
        <path d="M10.8427734,21.1064453l-0.8364258-2.5029297h0.5986328l0.5947266,1.921875l0.5952148-1.921875h0.5322266
		l-0.8330078,2.5029297H10.8427734z"/>
        <path d="M12.8520508,21.1064453v-2.5029297h0.5698242v2.5029297H12.8520508z"/>
        <path d="M15.2773438,21.1445313c-0.4013672,0-0.7109375-0.1142578-0.9296875-0.3427734
		c-0.2177734-0.2285156-0.3271484-0.5390625-0.3271484-0.9306641v-0.0283203c0-0.375,0.1171875-0.6826172,0.3515625-0.9199219
		c0.234375-0.2382813,0.53125-0.3574219,0.890625-0.3574219c0.3134766,0,0.5693359,0.0771484,0.7685547,0.2314453
		c0.1992188,0.1533203,0.3134766,0.3798828,0.3417969,0.6787109h-0.5810547
		c-0.0419922-0.3085938-0.2177734-0.4619141-0.5253906-0.4619141c-0.1982422,0-0.3554688,0.0732422-0.4726563,0.2207031
		c-0.1162109,0.1464844-0.1748047,0.3486328-0.1748047,0.6054688v0.0273438c0,0.2587891,0.0566406,0.4609375,0.171875,0.6044922
		c0.1142578,0.1425781,0.2734375,0.2148438,0.4794922,0.2148438c0.1582031,0,0.2880859-0.0400391,0.3876953-0.1210938
		c0.1005859-0.0800781,0.1621094-0.2001953,0.1855469-0.3583984h0.5566406
		c-0.0302734,0.3037109-0.1464844,0.5351563-0.3476563,0.6962891
		C15.8505859,21.0644531,15.5917969,21.1445313,15.2773438,21.1445313z"/>
        <path d="M16.9433594,21.1064453v-2.5029297h1.6308594v0.4414063h-1.0673828v0.5849609h0.8535156v0.4121094h-0.8535156v0.6230469
		h1.1230469v0.4414063H16.9433594z"/>
        <path d="M20.0761719,21.1445313c-0.3310547,0-0.5820313-0.0722656-0.7529297-0.2167969
		c-0.1699219-0.1445313-0.2636719-0.3466797-0.2792969-0.6054688h0.5419922
		c0.0146484,0.1289063,0.0566406,0.2285156,0.1279297,0.3007813s0.1923828,0.109375,0.3623047,0.109375
		c0.1240234,0,0.2236328-0.03125,0.2988281-0.0927734c0.0761719-0.0625,0.1142578-0.1425781,0.1142578-0.2402344
		c0-0.1005859-0.0332031-0.1728516-0.0976563-0.2167969c-0.0654297-0.0449219-0.1904297-0.0810547-0.375-0.1083984
		c-0.3271484-0.0419922-0.5585938-0.1201172-0.6962891-0.2333984c-0.1376953-0.1123047-0.2070313-0.2880859-0.2070313-0.5263672
		c0-0.2167969,0.0839844-0.3955078,0.2509766-0.5351563c0.1660156-0.140625,0.3867188-0.2099609,0.6591797-0.2099609
		c0.2822266,0,0.5039063,0.0625,0.6630859,0.1884766c0.1601563,0.1259766,0.2519531,0.3125,0.2753906,0.5605469h-0.5214844
		c-0.0351563-0.2216797-0.1738281-0.3330078-0.4169922-0.3330078c-0.1210938,0-0.2138672,0.0253906-0.2783203,0.0771484
		c-0.0634766,0.0517578-0.0957031,0.1201172-0.0957031,0.2060547c0,0.09375,0.0302734,0.1630859,0.0927734,0.2089844
		c0.0615234,0.0449219,0.1855469,0.0820313,0.3720703,0.1103516c0.3222656,0.0419922,0.5556641,0.1171875,0.7001953,0.2255859
		s0.2167969,0.2861328,0.2167969,0.5332031c0,0.2285156-0.0869141,0.4189453-0.2607422,0.5703125
		C20.5966797,21.0693359,20.3652344,21.1445313,20.0761719,21.1445313z"/>
    </g>
</svg>
